<svg width="64" height="48" viewBox="0 0 64 48" fill="none" xmlns="http://www.w3.org/2000/svg">
<path d="M14.2222 40.5H14.7222V40C14.7222 35.3684 11.3632 31.5 7.11111 31.5H6.61111V32V40V40.5H7.11111H14.2222ZM6.61111 16V16.5H7.11111C11.3632 16.5 14.7222 12.6317 14.7222 8V7.5H14.2222H7.11111H6.61111V8V16ZM49.2778 40V40.5H49.7778H56.8889H57.3889V40V32V31.5H56.8889C52.6368 31.5 49.2778 35.3684 49.2778 40ZM56.8889 16.5H57.3889V16V8V7.5H56.8889H49.7778H49.2778V8C49.2778 12.6317 52.6368 16.5 56.8889 16.5ZM0.5 8C0.5 3.80665 3.51877 0.5 7.11111 0.5H56.8889C60.4812 0.5 63.5 3.80665 63.5 8V40C63.5 44.1933 60.4812 47.5 56.8889 47.5H7.11111C3.51877 47.5 0.5 44.1933 0.5 40V8ZM39.9162 15.1825C37.8278 12.8331 34.9819 11.5 32 11.5C29.0181 11.5 26.1722 12.8331 24.0838 15.1825C21.9972 17.53 20.8333 20.7026 20.8333 24C20.8333 27.2974 21.9972 30.47 24.0838 32.8175C26.1722 35.1669 29.0181 36.5 32 36.5C34.9819 36.5 37.8278 35.1669 39.9162 32.8175C42.0028 30.47 43.1667 27.2974 43.1667 24C43.1667 20.7026 42.0028 17.53 39.9162 15.1825Z" fill="#008000" stroke="black"/>
</svg>
