<svg width="31" height="27" viewBox="0 0 31 27" fill="none" xmlns="http://www.w3.org/2000/svg">
<path d="M28.6154 0H2.38462C1.75218 0 1.14564 0.258603 0.698438 0.71892C0.251235 1.17924 0 1.80356 0 2.45455V24.5455C0 25.1964 0.251235 25.8208 0.698438 26.2811C1.14564 26.7414 1.75218 27 2.38462 27H28.6154C29.2478 27 29.8544 26.7414 30.3016 26.2811C30.7488 25.8208 31 25.1964 31 24.5455V2.45455C31 1.80356 30.7488 1.17924 30.3016 0.71892C29.8544 0.258603 29.2478 0 28.6154 0ZM28.6154 24.5455H2.38462V2.45455H28.6154V24.5455ZM22.6538 7.36364C22.6538 9.31659 21.9001 11.1896 20.5585 12.5705C19.2169 13.9515 17.3973 14.7273 15.5 14.7273C13.6027 14.7273 11.7831 13.9515 10.4415 12.5705C9.09986 11.1896 8.34615 9.31659 8.34615 7.36364C8.34615 7.03814 8.47177 6.72598 8.69537 6.49582C8.91897 6.26567 9.22224 6.13636 9.53846 6.13636C9.85468 6.13636 10.1579 6.26567 10.3816 6.49582C10.6052 6.72598 10.7308 7.03814 10.7308 7.36364C10.7308 8.66561 11.2332 9.91426 12.1276 10.8349C13.022 11.7555 14.2351 12.2727 15.5 12.2727C16.7649 12.2727 17.978 11.7555 18.8724 10.8349C19.7668 9.91426 20.2692 8.66561 20.2692 7.36364C20.2692 7.03814 20.3948 6.72598 20.6184 6.49582C20.8421 6.26567 21.1453 6.13636 21.4615 6.13636C21.7778 6.13636 22.081 6.26567 22.3046 6.49582C22.5282 6.72598 22.6538 7.03814 22.6538 7.36364Z" fill="white"/>
</svg>
