<svg width="48" height="48" viewBox="0 0 48 48" fill="none" xmlns="http://www.w3.org/2000/svg">
<path d="M6 0C4.34062 0 3 1.34062 3 3V9C3 10.6594 4.34062 12 6 12H13.5V15H8.15625C5.19375 15 2.67188 17.1656 2.22188 20.1L0.103125 34.1344C0.0375 34.575 0 35.025 0 35.475V42C0 45.3094 2.69063 48 6 48H42C45.3094 48 48 45.3094 48 42V35.475C48 35.025 47.9625 34.575 47.8969 34.125L45.7688 20.1C45.3281 17.1656 42.8063 15 39.8438 15H19.5V12H27C28.6594 12 30 10.6594 30 9V3C30 1.34062 28.6594 0 27 0H6ZM9 4.5H24C24.825 4.5 25.5 5.175 25.5 6C25.5 6.825 24.825 7.5 24 7.5H9C8.175 7.5 7.5 6.825 7.5 6C7.5 5.175 8.175 4.5 9 4.5ZM6 40.5C6 39.675 6.675 39 7.5 39H40.5C41.325 39 42 39.675 42 40.5C42 41.325 41.325 42 40.5 42H7.5C6.675 42 6 41.325 6 40.5ZM10.5 24.75C9.90326 24.75 9.33097 24.5129 8.90901 24.091C8.48705 23.669 8.25 23.0967 8.25 22.5C8.25 21.9033 8.48705 21.331 8.90901 20.909C9.33097 20.4871 9.90326 20.25 10.5 20.25C11.0967 20.25 11.669 20.4871 12.091 20.909C12.5129 21.331 12.75 21.9033 12.75 22.5C12.75 23.0967 12.5129 23.669 12.091 24.091C11.669 24.5129 11.0967 24.75 10.5 24.75ZM21.75 22.5C21.75 23.0967 21.5129 23.669 21.091 24.091C20.669 24.5129 20.0967 24.75 19.5 24.75C18.9033 24.75 18.331 24.5129 17.909 24.091C17.4871 23.669 17.25 23.0967 17.25 22.5C17.25 21.9033 17.4871 21.331 17.909 20.909C18.331 20.4871 18.9033 20.25 19.5 20.25C20.0967 20.25 20.669 20.4871 21.091 20.909C21.5129 21.331 21.75 21.9033 21.75 22.5ZM15 32.25C14.4033 32.25 13.831 32.0129 13.409 31.591C12.9871 31.169 12.75 30.5967 12.75 30C12.75 29.4033 12.9871 28.831 13.409 28.409C13.831 27.9871 14.4033 27.75 15 27.75C15.5967 27.75 16.169 27.9871 16.591 28.409C17.0129 28.831 17.25 29.4033 17.25 30C17.25 30.5967 17.0129 31.169 16.591 31.591C16.169 32.0129 15.5967 32.25 15 32.25ZM30.75 22.5C30.75 23.0967 30.5129 23.669 30.091 24.091C29.669 24.5129 29.0967 24.75 28.5 24.75C27.9033 24.75 27.331 24.5129 26.909 24.091C26.4871 23.669 26.25 23.0967 26.25 22.5C26.25 21.9033 26.4871 21.331 26.909 20.909C27.331 20.4871 27.9033 20.25 28.5 20.25C29.0967 20.25 29.669 20.4871 30.091 20.909C30.5129 21.331 30.75 21.9033 30.75 22.5ZM24 32.25C23.4033 32.25 22.831 32.0129 22.409 31.591C21.9871 31.169 21.75 30.5967 21.75 30C21.75 29.4033 21.9871 28.831 22.409 28.409C22.831 27.9871 23.4033 27.75 24 27.75C24.5967 27.75 25.169 27.9871 25.591 28.409C26.0129 28.831 26.25 29.4033 26.25 30C26.25 30.5967 26.0129 31.169 25.591 31.591C25.169 32.0129 24.5967 32.25 24 32.25ZM39.75 22.5C39.75 22.7955 39.6918 23.0881 39.5787 23.361C39.4657 23.634 39.2999 23.8821 39.091 24.091C38.8821 24.2999 38.634 24.4657 38.361 24.5787C38.0881 24.6918 37.7955 24.75 37.5 24.75C37.2045 24.75 36.9119 24.6918 36.639 24.5787C36.366 24.4657 36.1179 24.2999 35.909 24.091C35.7001 23.8821 35.5343 23.634 35.4213 23.361C35.3082 23.0881 35.25 22.7955 35.25 22.5C35.25 22.2045 35.3082 21.9119 35.4213 21.639C35.5343 21.366 35.7001 21.1179 35.909 20.909C36.1179 20.7001 36.366 20.5343 36.639 20.4213C36.9119 20.3082 37.2045 20.25 37.5 20.25C37.7955 20.25 38.0881 20.3082 38.361 20.4213C38.634 20.5343 38.8821 20.7001 39.091 20.909C39.2999 21.1179 39.4657 21.366 39.5787 21.639C39.6918 21.9119 39.75 22.2045 39.75 22.5ZM33 32.25C32.4033 32.25 31.831 32.0129 31.409 31.591C30.9871 31.169 30.75 30.5967 30.75 30C30.75 29.4033 30.9871 28.831 31.409 28.409C31.831 27.9871 32.4033 27.75 33 27.75C33.5967 27.75 34.169 27.9871 34.591 28.409C35.0129 28.831 35.25 29.4033 35.25 30C35.25 30.5967 35.0129 31.169 34.591 31.591C34.169 32.0129 33.5967 32.25 33 32.25Z" fill="black"/>
</svg>
