<svg width="48" height="36" viewBox="0 0 48 36" fill="none" xmlns="http://www.w3.org/2000/svg">
<path d="M14.4255 14.1015L14.4245 14.1012C13.5231 13.8339 12.6906 13.6518 11.9573 13.6343C11.3806 13.6265 10.8092 13.7858 10.4493 14.0211L14.4255 14.1015ZM14.4255 14.1015C15.6367 14.4581 16.8077 13.6405 17.0953 12.4039C17.3769 11.1934 16.7593 9.8679 15.5702 9.51528C15.1349 9.37977 14.664 9.24888 14.1667 9.14225V8.2875V8.25H14.1664C14.1482 7.0147 13.2341 5.9125 12 5.9125C10.7535 5.9125 9.83333 7.0371 9.83333 8.2875V9.21982C9.27474 9.39101 8.72179 9.63626 8.20683 9.98028C6.91809 10.83 5.82421 12.3475 5.83334 14.5146L5.83334 14.5147C5.84258 16.6143 6.95377 17.9526 8.10992 18.7412L8.11193 18.7425C9.07177 19.3904 10.248 19.7908 11.1361 20.0932C11.1566 20.1001 11.177 20.1071 11.1971 20.1139L11.2013 20.1153L11.3394 20.161C11.3399 20.1612 11.3405 20.1614 11.3411 20.1616C12.411 20.5246 13.0903 20.7744 13.5427 21.0975L13.545 21.0991C13.7321 21.2312 13.7882 21.3056 13.8057 21.3358C13.8144 21.3509 13.825 21.3694 13.825 21.4594H13.8249L13.8251 21.4683C13.8282 21.6442 13.7996 21.7449 13.7656 21.811C13.7321 21.8764 13.6731 21.9473 13.5505 22.0314L13.5505 22.0314L13.5434 22.0364C13.2477 22.2469 12.7071 22.4097 12.0703 22.3848C11.242 22.3512 10.4546 22.0585 9.30282 21.6202L9.29494 21.6172L9.28697 21.6145C9.20148 21.5852 9.1119 21.551 9.01159 21.5122C9.00127 21.5082 8.99083 21.5041 8.98028 21.5001C8.89185 21.4658 8.79555 21.4285 8.69728 21.3931C7.50874 20.9496 6.29736 21.6864 5.93727 22.9017C5.58362 24.0953 6.13096 25.4459 7.28689 25.8822C7.45051 25.9466 7.61828 26.0127 7.79476 26.0789C8.38057 26.3119 9.07645 26.58 9.825 26.787V27.7688C9.825 29.0192 10.7451 30.1438 11.9917 30.1438C13.2382 30.1438 14.1583 29.0192 14.1583 27.7688V26.8585C14.7462 26.6833 15.3346 26.4231 15.8789 26.0405C17.1993 25.1158 18.1855 23.5384 18.1583 21.4061L18.1583 21.4059C18.1308 19.3118 17.0751 17.9368 15.8978 17.1048C14.8963 16.3899 13.663 15.9691 12.7509 15.6579C12.7265 15.6495 12.7022 15.6413 12.6783 15.6331L12.6783 15.633M14.4255 14.1015L12.6783 15.633M12.6783 15.633L12.6697 15.6302M12.6783 15.633L12.6697 15.6302M12.6697 15.6302L12.6141 15.6124C11.5309 15.2506 10.8386 14.9995 10.3826 14.6907C10.2907 14.6269 10.2324 14.5783 10.196 14.543C10.1769 14.5245 10.1653 14.511 10.1586 14.5026C10.1584 14.4962 10.1583 14.4873 10.1583 14.475C10.1583 14.3601 10.177 14.2981 10.2032 14.2512M12.6697 15.6302L10.2032 14.2512M10.2032 14.2512C10.2315 14.2005 10.2933 14.1236 10.4488 14.0215L10.2032 14.2512ZM0.5 6C0.5 2.90978 2.72155 0.5 5.33333 0.5H42.6667C45.2785 0.5 47.5 2.90978 47.5 6V30C47.5 33.0902 45.2785 35.5 42.6667 35.5H5.33333C2.72155 35.5 0.5 33.0902 0.5 30V6ZM41.3333 11.5H22.6667C21.6035 11.5 20.8333 12.4558 20.8333 13.5C20.8333 14.5442 21.6035 15.5 22.6667 15.5H41.3333C42.3965 15.5 43.1667 14.5442 43.1667 13.5C43.1667 12.4558 42.3965 11.5 41.3333 11.5ZM22.6667 20.5C21.6035 20.5 20.8333 21.4558 20.8333 22.5C20.8333 23.5442 21.6035 24.5 22.6667 24.5H41.3333C42.3965 24.5 43.1667 23.5442 43.1667 22.5C43.1667 21.4558 42.3965 20.5 41.3333 20.5H22.6667Z" fill="#FFFF00" stroke="black"/>
</svg>
