<svg width="256.9200073242188" height="101.61358201625922" viewBox="-4 0 374 100.82637943225747" className=""><defs id="SvgjsDefs1951"></defs><g id="SvgjsG1952" transform="matrix(1.284547977237769,0,0,1.284547977237769,-18.188703510328807,-5.328662172565071)" fill="#f0f0f0"><title xmlnsXlink="http://www.w3.org/2000/svg"></title><path xmlns="http://www.w3.org/2000/svg" d="M85.82,74.51l-0.2.17C79,80.49,71.17,83,64.12,81.62c-6.36-1.26-10.91-5.46-15.3-9.52-4.76-4.4-9.25-8.55-15.87-9.26S19.1,65.18,13.39,71.29c2.22,3.09,12.78,15.79,30,5.3a1,1,0,0,1,1,1.71c-5.18,3.15-9.84,4.34-13.91,4.34-12.25,0-19.19-10.76-19.28-10.91a1,1,0,0,1,.1-1.2c6.23-7,14.17-10.51,21.79-9.69,7.28,0.78,12.23,5.36,17,9.78,4.38,4,8.52,7.88,14.33,9,6.44,1.28,13.65-1.08,19.78-6.48l0.24-.2a26.68,26.68,0,0,0,2.23-2c-3-7.08-11.17-8.72-12.8-9a36.92,36.92,0,0,1-9.55,4.13,1,1,0,0,1-.27,0,1,1,0,0,1-.27-2c10.19-2.9,16.5-8.43,18.78-16.42a24.11,24.11,0,0,0,.53-10.5c-13.83-1.42-19.66,6.85-20.52,8.2-0.77,5.4-3.22,10.78-7.32,16.08a1,1,0,0,1-1.58-1.22C57.67,55.26,60,50.14,60.69,45h0a24.07,24.07,0,0,0,0-6.45c-1.32-10-8.65-17-10.86-18.91C38.27,30.34,40.34,41.9,42.79,48.1a38.83,38.83,0,0,1,2.4,4.71,1,1,0,0,1-1.74,1,26.32,26.32,0,0,1-2.25-4.45c-3.6-6.1-8.47-9.9-14.52-11.31a22.17,22.17,0,0,0-9.43-.13c-2.89,8.75,3.16,16.64,3.22,16.72a1,1,0,0,1-1.58,1.23c-0.29-.37-7-9.14-3.35-19.15a1,1,0,0,1,.66-0.61,23.88,23.88,0,0,1,23.28,7.5c-1.38-7.14-.54-17,9.67-26a1,1,0,0,1,1.27,0C50.87,17.88,61,25.73,62.7,38.31A26.1,26.1,0,0,1,62.92,42c3.07-3.23,9.68-8,21.21-6.59a1,1,0,0,1,.84.74c0,0.18,3.59,14.77-8.74,24.3,3.52,0.9,10,3.45,12.58,10.28C89.13,71.52,88.62,72.16,85.82,74.51Z"></path></g><g id="SvgjsG1953"  transform="matrix(4.442075433945546,0,0,4.442075433945546,117.06822983232955,3.347555868913229)" fill="#f0f0f0"><path d="M0.78 20 l0 -0.54 l0.34 -0.34 c0.36 -0.36 0.56 -0.82 0.56 -1.36 l0 -9.32 c0 -0.48 -0.22 -0.92 -0.52 -1.28 l-0.5 -0.58 l0 -0.58 l3.18 0 l4.98 11.58 l4.9 -11.58 l3.28 0 l0 0.58 l-0.54 0.58 c-0.32 0.34 -0.52 0.8 -0.52 1.3 l0 9.16 c0 0.46 0.14 0.92 0.5 1.28 l0.52 0.56 l0 0.54 l-4.24 0 l0 -0.54 l0.52 -0.56 c0.32 -0.36 0.48 -0.82 0.48 -1.28 l0 -9.8 l-4.56 10.66 l-2.16 0 l-4.48 -10.42 l0 10 c0 0.52 0.24 1.02 0.62 1.4 l0 0.54 l-2.36 0 z M26.44 16.94 l1.48 0 c-0.7 1.9 -2.54 3.26 -4.76 3.26 c-2.82 0 -5.06 -2.26 -5.06 -4.98 c0 -2.78 2.24 -5.04 5.06 -5.04 c2.78 0 5.04 2.2 5.08 4.94 l-8.12 0 c0.08 0.24 0.12 0.5 0.2 0.78 c0.64 2.2 2.16 3.78 3.7 3.78 c1.44 0 2.22 -1.36 2.42 -2.74 z M20.020000000000003 14.3 l6.14 0 c-0.68 -2.08 -2.28 -3.4 -3.78 -3.4 c-1.52 0 -2.38 1.46 -2.38 2.96 c0 0.14 0 0.3 0.02 0.44 z M29.26 20 l0 -0.5 c0.68 -0.74 1.02 -1.66 1.02 -2.66 l0 -3.3 c0 -0.98 -0.34 -1.92 -1.02 -2.62 l0 -0.58 l3.22 0 l0 1.04 c0.62 -0.62 1.8 -1.1 2.62 -1.1 c0.86 0 1.46 0.32 1.46 0.32 l-0.42 1.82 s-0.9 -0.74 -2 -0.74 c-1.46 0 -1.66 0.98 -1.66 1.24 l0 3.92 c0 1 0.38 1.92 1.02 2.66 l0 0.5 l-4.24 0 z M45.86 17.48 l1.36 0 c-0.88 1.6 -2.58 2.72 -4.52 2.72 c-2.84 0 -5.56 -1.9 -5.56 -4.98 c0 -3.38 2.72 -5.04 5.56 -5.04 l0.5 0 c1.7 0 3.28 1.1 3.96 2.66 l-2.18 0 c-0.82 -1.26 -1.92 -1.94 -3.02 -1.94 c-1.56 0 -2.46 1.38 -2.46 3.14 c0 3.04 2.14 5.64 4 5.64 c1.2 0 2.08 -0.94 2.36 -2.2 z M48.08 20 l0 -0.54 c0.6 -0.7 0.96 -1.66 0.96 -2.62 l0 -7.66 c0 -0.96 -0.36 -1.9 -0.94 -2.58 l0 -0.6 l2.94 0 l0 10.86 c0 0.94 0.36 1.9 0.98 2.6 l0 0.54 l-3.94 0 z M53.28 20 l0 -0.54 c0.56 -0.7 0.86 -1.66 0.86 -2.62 l0 -3.32 c0 -0.98 -0.3 -1.92 -0.86 -2.62 l0 -0.56 l2.76 0 l0 6.52 c0 0.94 0.32 1.9 0.9 2.6 l0 0.54 l-3.66 0 z M54.82 9.46 c-0.76 0 -1.38 -0.64 -1.38 -1.4 c0 -0.78 0.62 -1.4 1.38 -1.4 c0.78 0 1.4 0.62 1.4 1.4 c0 0.76 -0.62 1.4 -1.4 1.4 z"></path></g></svg>