<svg width="12" height="10" viewBox="0 0 12 10" fill="none" xmlns="http://www.w3.org/2000/svg">
<g clip-path="url(#clip0_24_17)">
<path fill-rule="evenodd" clip-rule="evenodd" d="M10.8125 4.79807C8.6325 4.32974 6.929 2.91015 6.367 1.09349L6.125 0.311401L5.883 1.09349C5.321 2.91015 3.61753 4.32974 1.43752 4.79807L0.499023 4.99974L1.43752 5.20182C3.61753 5.67015 5.321 7.08974 5.883 8.90599L6.125 9.68849L6.367 8.90599C6.929 7.08974 8.6325 5.67015 10.8125 5.20182L11.751 4.99974L10.8125 4.79807Z" fill="#FBFF02"/>
<path fill-rule="evenodd" clip-rule="evenodd" d="M9.50056 3.22784C9.50056 2.74367 10.1376 2.18659 10.7501 2.18659C10.1606 2.18659 9.50056 1.62367 9.50056 1.14575C9.50056 1.62367 8.84656 2.18659 8.25156 2.18659C8.82406 2.18659 9.50056 2.74075 9.50056 3.22784Z" fill="#FBFF02"/>
</g>
<defs>
<clipPath id="clip0_24_17">
<rect width="12" height="10" fill="white"/>
</clipPath>
</defs>
</svg>
