<svg width="48" height="48" viewBox="0 0 48 48" fill="none" xmlns="http://www.w3.org/2000/svg">
<path d="M0.5 9C0.5 5.96677 2.96677 3.5 6 3.5H42C43.3832 3.5 44.5 4.61677 44.5 6C44.5 7.38323 43.3832 8.5 42 8.5H7.5C6.39886 8.5 5.5 9.39886 5.5 10.5C5.5 11.6011 6.39886 12.5 7.5 12.5H42C45.0332 12.5 47.5 14.9668 47.5 18V39C47.5 42.0332 45.0332 44.5 42 44.5H6C2.96677 44.5 0.5 42.0332 0.5 39V9ZM41.4749 26.0251C40.8185 25.3687 39.9283 25 39 25C38.0717 25 37.1815 25.3687 36.5251 26.0251C35.8687 26.6815 35.5 27.5717 35.5 28.5C35.5 29.4283 35.8687 30.3185 36.5251 30.9749C37.1815 31.6313 38.0717 32 39 32C39.9283 32 40.8185 31.6313 41.4749 30.9749C42.1313 30.3185 42.5 29.4283 42.5 28.5C42.5 27.5717 42.1313 26.6815 41.4749 26.0251Z" fill="#962D2D" stroke="black"/>
</svg>
