<svg width="48" height="48" viewBox="0 0 48 48" fill="none" xmlns="http://www.w3.org/2000/svg">
<path d="M41.2819 1.58252L41.2824 1.58201C42.5144 0.311026 44.7618 0.127682 46.2703 1.20202C47.7324 2.2433 47.9032 4.05109 46.7142 5.27811C46.714 5.27824 46.7139 5.27837 46.7138 5.27849L28.8535 23.6515L28.5147 24L28.8535 24.3485L46.7138 42.7215C46.7139 42.7216 46.714 42.7218 46.7142 42.7219C47.9032 43.9489 47.7324 45.7567 46.2703 46.798C44.7618 47.8723 42.5144 47.689 41.2824 46.418L41.2819 46.4175L24.3585 29.0082L24 28.6394L23.6415 29.0082L6.71809 46.4175L6.7176 46.418C5.48557 47.689 3.2382 47.8723 1.7297 46.798C0.267592 45.7567 0.0968113 43.9488 1.28596 42.7218C1.28604 42.7217 1.28613 42.7216 1.28621 42.7215L19.1465 24.3485L19.4853 24L19.1465 23.6515L1.28621 5.27849C1.28611 5.27839 1.28602 5.27829 1.28592 5.27819C0.0968148 4.05116 0.267608 2.24332 1.7297 1.20202C3.2382 0.127682 5.48557 0.311026 6.7176 1.58201L6.71809 1.58252L23.6415 18.9918L24 19.3606L24.3585 18.9918L41.2819 1.58252Z" fill="#FF0000" stroke="black"/>
</svg>
