<svg width="32" height="32" viewBox="0 0 32 32" fill="none" xmlns="http://www.w3.org/2000/svg">
<path d="M31.2667 6.4875L27.8967 0.81875C27.5968 0.3125 27.0616 0 26.4911 0H5.50661C4.93612 0 4.40092 0.3125 4.10098 0.81875L0.725108 6.4875C-1.01576 9.4125 0.525144 13.4812 3.7775 13.95C4.01276 13.9812 4.25389 14 4.48914 14C6.02416 14 7.38862 13.2875 8.32375 12.1875C9.25888 13.2875 10.6233 14 12.1584 14C13.6934 14 15.0578 13.2875 15.993 12.1875C16.9281 13.2875 18.2926 14 19.8276 14C21.3685 14 22.7271 13.2875 23.6622 12.1875C24.6032 13.2875 25.9618 14 27.4968 14C27.7379 14 27.9732 13.9812 28.2084 13.95C31.4726 13.4875 33.0193 9.41875 31.2726 6.4875H31.2667ZM28.4496 15.9312C28.4496 15.9312 28.4496 15.9312 28.4437 15.9312C28.132 15.975 27.8144 16 27.4909 16C26.7616 16 26.0618 15.8812 25.4089 15.6687V24H6.58877V15.6625C5.93006 15.8813 5.2243 16 4.49502 16C4.17155 16 3.84808 15.975 3.53637 15.9312H3.53049C3.28936 15.8937 3.0541 15.85 2.82473 15.7875V24V28C2.82473 30.2062 4.51267 32 6.58877 32H25.4089C27.485 32 29.173 30.2062 29.173 28V24V15.7875C28.9377 15.85 28.7025 15.9 28.4496 15.9312Z" fill="#F0F0F0"/>
</svg>
