<svg width="64" height="56" viewBox="0 0 64 56" fill="none" xmlns="http://www.w3.org/2000/svg">
<path d="M0.5 8C0.5 3.80665 3.51877 0.5 7.11111 0.5H56.8889C60.4812 0.5 63.5 3.80665 63.5 8V11.5H0.5V8ZM0.5 48V24.5H63.5V48C63.5 52.1933 60.4812 55.5 56.8889 55.5H7.11111C3.51877 55.5 0.5 52.1933 0.5 48ZM19.5556 39.5H12.4444C11.1368 39.5 10.1667 40.6809 10.1667 42C10.1667 43.3191 11.1368 44.5 12.4444 44.5H19.5556C20.8632 44.5 21.8333 43.3191 21.8333 42C21.8333 40.6809 20.8632 39.5 19.5556 39.5ZM26.6667 39.5C25.359 39.5 24.3889 40.6809 24.3889 42C24.3889 43.3191 25.359 44.5 26.6667 44.5H40.8889C42.1965 44.5 43.1667 43.3191 43.1667 42C43.1667 40.6809 42.1965 39.5 40.8889 39.5H26.6667Z" fill="#0062D1" stroke="black"/>
</svg>
